#!OML:ASF E:\emotionWalksFemale\Project 1\Capture day 1\Session 1\Female1.ASF
:FULLY-SPECIFIED
:DEGREES
1757
root 11.4089 15.3418 -37.7686 0.31156 0.19426 361.676
lowerback 0.845806 -0.0844539 1.06822
upperback -4.47633 0.11887 4.39692
thorax -5.11948 0.119173 3.96619
lowerneck -10.2312 -5.29483 -4.07124
upperneck 0.817425 -6.90489 8.37982
head 2.57751 -3.19859 3.10343
rclavicle 1.49089e-014 1.59028e-014
rhumerus -52.1034 -0.352276 -74.2125
rradius 37.3916
rwrist 22.2884
rhand -5.81769 -54.4873
rfingers 7.12502
rthumb -159.992 -623.477
lclavicle 1.49089e-014 1.59028e-014
lhumerus -32.5751 4.00496 82.0473
lradius 46.1318
lwrist -7.96374
lhand -5.48636 -34.9268
lfingers 7.12502
lthumb 20.3261 -5.97047
rfemur -6.21439 8.74857 21.3399
rtibia 29.1325
rfoot -34.6044 -32.9118
rtoes 19.7114
lfemur -7.80557 -21.4945 -24.6785
ltibia 28.2277
lfoot -27.3315 23.2513
ltoes -22.1597
1758
root 11.4205 15.3388 -37.7649 0.171711 0.0553487 361.618
lowerback 0.854544 -0.0569288 0.904326
upperback -4.45302 0.14376 4.27791
thorax -5.10069 0.135166 3.93204
lowerneck -9.98028 -5.36036 -4.24348
upperneck 1.02787 -7.01264 8.76151
head 2.6394 -3.24412 3.26576
rclavicle 1.64991e-014 -5.40694e-014
rhumerus -52.2423 -0.216505 -74.4889
rradius 37.5765
rwrist 22.3325
rhand -5.70893 -55.4663
rfingers 7.12502
rthumb -159.888 -624.445
lclavicle 1.64991e-014 -5.40694e-014
lhumerus -32.7915 3.84128 82.3099
lradius 46.3961
lwrist -7.82812
lhand -5.55725 -35.2014
lfingers 7.12502
lthumb 20.2579 -6.23781
rfemur -6.03021 9.02503 21.358
rtibia 29.0886
rfoot -34.257 -32.1898
rtoes 19.1925
lfemur -7.63018 -21.6577 -24.7754
ltibia 28.3598
lfoot -27.8017 23.5521
ltoes -22.0341
1759
root 11.4304 15.3355 -37.7634 0.0718008 -0.0477023 361.55
lowerback 0.713959 -0.0449058 0.722652
upperback -4.33858 0.141615 4.22625
thorax -4.89993 0.137919 3.97742
lowerneck -9.82256 -5.46164 -4.50282
upperneck 1.09992 -7.14105 9.0209
head 2.67148 -3.30471 3.39977
rclavicle 2.78299e-015 2.70347e-014
rhumerus -52.2067 -0.0800932 -74.6059
rradius 37.6395
rwrist 22.2352
rhand -6.12673 -55.0463
rfingers 7.12502
rthumb -160.289 -624.067
lclavicle 2.78299e-015 2.70347e-014
lhumerus -32.992 3.67167 82.6351
lradius 46.7704
lwrist -7.61861
lhand -5.6758 -35.0675
lfingers 7.12502
lthumb 20.144 -6.09191
rfemur -5.9319 9.13623 21.3766
rtibia 29.1045
rfoot -33.6694 -31.5817
rtoes 17.6261
lfemur -7.48534 -21.8772 -24.8419
ltibia 28.4665
lfoot -28.4128 23.7762
ltoes -21.5433
1760
root 11.4401 15.3309 -37.764 -0.0158524 -0.11177 361.516
lowerback 0.667304 -0.056374 0.546229
upperback -4.25067 0.112355 4.15486
thorax -4.77893 0.126997 4.00182
lowerneck -10.0731 -5.48719 -4.9016
upperneck 1.7551 -7.20253 9.87397
head 2.70608 -3.27746 3.3786
rclavicle 1.98785e-016 -1.43125e-014
rhumerus -52.1456 0.218534 -74.8579
rradius 37.7663
rwrist 21.904
rhand -6.31265 -55.0144
rfingers 7.12502
rthumb -160.468 -624.053
lclavicle 1.98785e-016 -1.43125e-014
lhumerus -33.3225 3.44415 82.9039
lradius 47.2799
lwrist -7.24402
lhand -6.02977 -34.5153
lfingers 7.12502
lthumb 19.8037 -5.50415
rfemur -5.86903 9.02839 21.3223
rtibia 29.1538
rfoot -33.1004 -30.9738
rtoes 15.9513
lfemur -7.36574 -22.1594 -24.937
ltibia 28.5553
lfoot -29.1497 23.6497
ltoes -19.1974
1761
root 11.4498 15.3282 -37.7652 -0.0732612 -0.148484 361.478
lowerback 0.709864 -0.0707134 0.402165
upperback -4.27896 0.0850133 4.01695
thorax -4.83024 0.11656 3.94068
lowerneck -9.84634 -5.57944 -4.95383
upperneck 1.9496 -7.35306 10.0413
head 2.74816 -3.34889 3.43046
rclavicle 5.76476e-015 -4.77083e-015
rhumerus -52.1755 0.524209 -75.2302
rradius 37.8295
rwrist 21.5807
rhand -6.20248 -55.2673
rfingers 7.12502
rthumb -160.362 -624.295
lclavicle 5.76476e-015 -4.77083e-015
lhumerus -33.6846 3.32021 83.0698
lradius 47.5671
lwrist -7.06341
lhand -5.87667 -34.9854
lfingers 7.12502
lthumb 19.9509 -5.98957
rfemur -5.83314 8.94617 21.2833
rtibia 29.2047
rfoot -32.5399 -30.5133
rtoes 14.8547
lfemur -7.31524 -22.365 -24.992
ltibia 28.6206
lfoot -29.6187 23.5595
ltoes -16.6907
1762
root 11.4611 15.3267 -37.7649 -0.0990346 -0.089083 361.457
lowerback 0.763888 -0.0750611 0.255822
upperback -4.35696 0.0706963 3.82884
thorax -4.9408 0.112612 3.82849
lowerneck -9.74467 -5.70414 -4.86932
upperneck 2.27956 -7.57027 10.1882
head 2.85035 -3.44576 3.44526
rclavicle -1.96797e-014 -7.95139e-015
rhumerus -52.2411 0.605993 -75.4795
rradius 37.7619
rwrist 21.8583
rhand -5.77759 -55.2989
rfingers 7.12502
rthumb -159.954 -624.285
lclavicle -1.96797e-014 -7.95139e-015
lhumerus -33.6105 3.51942 83.2328
lradius 47.1613
lwrist -7.49045
lhand -5.50568 -34.916
lfingers 7.12502
lthumb 20.3075 -5.95773
rfemur -5.80497 8.93944 21.2238
rtibia 29.2391
rfoot -32.1334 -30.1096
rtoes 14.2699
lfemur -7.28333 -22.5988 -25.0508
ltibia 28.6611
lfoot -29.7597 23.4475
ltoes -14.8197
1763
root 11.4704 15.3249 -37.7612 -0.101119 0.0122794 361.46
lowerback 0.662648 -0.106631 0.00997476
upperback -4.38762 0.0125782 3.67945
thorax -4.91078 0.0901557 3.81337
lowerneck -10.0497 -5.72536 -5.38535
upperneck 3.04438 -7.64907 11.0336
head 3.19348 -3.43164 3.76408
rclavicle 2.42517e-014 1.43125e-014
rhumerus -52.3044 0.74536 -75.6795
rradius 37.7311
rwrist 22.3094
rhand -5.34459 -55.3841
rfingers 7.12502
rthumb -159.538 -624.326
lclavicle 2.42517e-014 1.43125e-014
lhumerus -33.2617 3.52781 83.6056
lradius 46.6047
lwrist -7.80596
lhand -5.47764 -34.7883
lfingers 7.12502
lthumb 20.3344 -5.83288
rfemur -5.75807 8.99312 21.1437
rtibia 29.2254
rfoot -32.001 -29.7371
rtoes 14.0428
lfemur -7.21933 -22.9937 -25.1422
ltibia 28.6684
lfoot -29.836 23.5136
ltoes -14.8858
1764
root 11.4782 15.3198 -37.7616 -0.326589 -0.056613 361.42
lowerback 0.752283 -0.124287 -0.219506
upperback -4.307 -0.0230094 3.59781
thorax -4.87479 0.0786263 3.85891
lowerneck -9.66269 -5.76056 -4.96451
upperneck 3.01323 -7.7315 10.6496
head 3.09401 -3.49472 3.58302
rclavicle 2.18663e-015 -1.59028e-014
rhumerus -52.2975 1.16994 -76.0374
rradius 37.7999
rwrist 22.076
rhand -5.50243 -55.5051
rfingers 7.12502
rthumb -159.689 -624.463
lclavicle 2.18663e-015 -1.59028e-014
lhumerus -33.7988 3.28634 83.8249
lradius 47.0232
lwrist -7.63338
lhand -5.40856 -34.626
lfingers 7.12502
lthumb 20.4008 -5.67761
rfemur -5.52289 8.98732 21.138
rtibia 29.1937
rfoot -31.6341 -29.4166
rtoes 13.5093
lfemur -6.89091 -23.3655 -25.2999
ltibia 28.6456
lfoot -30.0167 23.8914
ltoes -15.4905
1765
root 11.4833 15.3187 -37.7615 -0.359346 -0.09383 361.405
lowerback 0.670181 -0.19502 -0.47536
upperback -4.31912 -0.130719 3.51757
thorax -4.8329 0.0329379 3.92422
lowerneck -9.32902 -5.72266 -5.26173
upperneck 3.17066 -7.69789 11.0466
head 3.11353 -3.47381 3.76039
rclavicle -1.55052e-014 2.54444e-014
rhumerus -52.3111 1.81296 -76.507
rradius 37.9132
rwrist 21.7179
rhand -5.35176 -55.9006
rfingers 7.12502
rthumb -159.545 -624.843
lclavicle -1.55052e-014 2.54444e-014
lhumerus -34.2009 3.25256 83.9679
lradius 47.1042
lwrist -7.47378
lhand -5.15165 -34.5722
lfingers 7.12502
lthumb 20.6477 -5.65044
rfemur -5.50829 8.97606 21.0915
rtibia 29.1701
rfoot -31.0163 -29.3235
rtoes 12.8722
lfemur -6.82213 -23.5868 -25.3497
ltibia 28.6019
lfoot -29.9956 24.2275
ltoes -15.6986
1766
root 11.4884 15.3193 -37.7582 -0.329384 -0.123237 361.437
lowerback 0.726509 -0.191703 -0.655789
upperback -4.42112 -0.13902 3.2781
thorax -4.97061 0.0332738 3.77801
lowerneck -9.28531 -5.78993 -5.19521
upperneck 3.48353 -7.84531 11.2937
head 3.22124 -3.5296 3.81241
rclavicle 8.34896e-015 3.02153e-014
rhumerus -52.4556 2.12189 -77.0108
rradius 37.9303
rwrist 21.6414
rhand -4.8611 -56.5918
rfingers 7.12502
rthumb -159.073 -625.483
lclavicle 8.34896e-015 3.02153e-014
lhumerus -34.4003 3.02194 83.9965
lradius 46.7295
lwrist -7.72323
lhand -5.46024 -35.0256
lfingers 7.12502
lthumb 20.3512 -6.07195
rfemur -5.53981 9.00871 20.9927
rtibia 29.1537
rfoot -30.5892 -29.3248
rtoes 12.769
lfemur -6.80924 -23.6969 -25.4149
ltibia 28.5899
lfoot -30.0722 24.2132
ltoes -15.0865
1767
root 11.4935 15.3213 -37.7548 -0.402712 -0.0984653 361.398
lowerback 0.622357 -0.138688 -0.744032
upperback -4.38922 -0.0818375 3.06104
thorax -4.88079 0.0588811 3.59654
lowerneck -9.15836 -5.9033 -5.20785
upperneck 3.67214 -8.03854 11.5523
head 3.28586 -3.6141 3.88058
rclavicle 3.97569e-016 -1.59028e-014
rhumerus -52.5267 2.34447 -77.4791
rradius 37.7628
rwrist 21.0323
rhand -5.83414 -55.9224
rfingers 7.12502
rthumb -160.008 -624.914
lclavicle 3.97569e-016 -1.59028e-014
lhumerus -34.4275 2.68066 84.1596
lradius 46.0667
lwrist -8.64146
lhand -6.96082 -36.0829
lfingers 7.12502
lthumb 18.9085 -6.98199
rfemur -5.44262 8.76716 20.9729
rtibia 29.1266
rfoot -30.2671 -29.2111
rtoes 13.4985
lfemur -6.66934 -23.8586 -25.4571
ltibia 28.607
lfoot -30.3451 23.9428
ltoes -13.3863
1768
root 11.4982 15.3199 -37.7576 -0.58116 0.00124838 361.243
lowerback 0.827046 -0.063067 -0.744493
upperback -4.49016 0.017365 2.91817
thorax -5.10961 0.108755 3.44545
lowerneck -8.74062 -6.05123 -5.43891
upperneck 3.88148 -8.27043 11.8777
head 3.32452 -3.72765 4.0088
rclavicle -1.31198e-014 1.98785e-014
rhumerus -52.8227 2.60063 -77.7914
rradius 37.8092
rwrist 21.426
rhand -5.40154 -56.8289
rfingers 7.12502
rthumb -159.592 -625.777
lclavicle -1.31198e-014 1.98785e-014
lhumerus -34.7623 2.29814 84.4155
lradius 45.902
lwrist -8.66824
lhand -6.65987 -36.1268
lfingers 7.12502
lthumb 19.1979 -7.0543
rfemur -5.26179 8.40692 21.1013
rtibia 29.0882
rfoot -29.3398 -29.2707
rtoes 13.4133
lfemur -6.48742 -24.0718 -25.3987
ltibia 28.6367
lfoot -30.486 23.9785
ltoes -12.7972
1769
root 11.5026 15.3174 -37.7609 -0.748925 -0.00431165 361.078
lowerback 1.13003 -0.0298996 -0.861314
upperback -4.66792 0.0622159 2.89479
thorax -5.47357 0.141749 3.48903
lowerneck -8.09858 -6.16297 -5.69773
upperneck 4.0038 -8.4399 12.0468
head 3.28867 -3.82784 4.10572
rclavicle 1.39149e-014 2.14687e-014
rhumerus -53.1784 3.28658 -78.1965
rradius 37.7277
rwrist 21.629
rhand -5.11907 -57.4552
rfingers 7.12502
rthumb -159.321 -626.374
lclavicle 1.39149e-014 2.14687e-014
lhumerus -35.3813 2.23536 84.653
lradius 45.7671
lwrist -8.96909
lhand -6.60691 -35.8589
lfingers 7.12502
lthumb 19.2488 -6.79152
rfemur -5.10887 8.34609 21.2535
rtibia 29.0238
rfoot -28.2194 -29.4595
rtoes 12.9701
lfemur -6.31135 -24.1867 -25.3313
ltibia 28.678
lfoot -30.5916 24.312
ltoes -13.7693
1770
root 11.5069 15.3196 -37.7575 -0.771825 -0.162472 360.954
lowerback 0.890124 -0.122418 -1.01617
upperback -4.66954 -0.0744648 2.7826
thorax -5.32831 0.0758194 3.46487
lowerneck -7.65876 -6.06649 -5.35322
upperneck 4.04028 -8.36267 12.0332
head 3.20496 -3.79922 4.06316
rclavicle -1.0138e-014 2.38542e-015
rhumerus -53.1348 4.17055 -79.055
rradius 37.4789
rwrist 21.3748
rhand -5.32539 -57.4579
rfingers 7.12502
rthumb -159.519 -626.398
lclavicle -1.0138e-014 2.38542e-015
lhumerus -35.8398 2.34647 84.4462
lradius 45.6315
lwrist -9.1228
lhand -6.22582 -35.7291
lfingers 7.12502
lthumb 19.6153 -6.69863
rfemur -5.08871 8.45702 21.3378
rtibia 28.9369
rfoot -27.5519 -29.4987
rtoes 12.9291
lfemur -6.22345 -24.3009 -25.2778
ltibia 28.714
lfoot -30.7806 24.5126
ltoes -13.8208
1771
root 11.5122 15.3226 -37.7512 -0.721848 -0.311713 360.825
lowerback 0.626063 -0.268499 -1.28307
upperback -4.76235 -0.284483 2.66371
thorax -5.26017 -0.0200575 3.50099
lowerneck -7.31472 -5.86295 -4.626
upperneck 4.27607 -8.18189 11.8824
head 3.16608 -3.70875 3.91937
rclavicle -3.18055e-015 -1.66979e-014
rhumerus -53.2007 4.99725 -79.9192
rradius 37.325
rwrist 21.3912
rhand -5.16393 -57.4513
rfingers 7.12502
rthumb -159.364 -626.374
lclavicle -3.18055e-015 -1.66979e-014
lhumerus -36.3889 2.57586 84.0627
lradius 45.3747
lwrist -9.28408
lhand -5.55417 -35.654
lfingers 7.12502
lthumb 20.2609 -6.6907
rfemur -5.11812 8.52253 21.4141
rtibia 28.8335
rfoot -26.9847 -29.5751
rtoes 11.4727
lfemur -6.23559 -24.4017 -25.1857
ltibia 28.7395
lfoot -30.7163 24.7368
ltoes -14.1858
